<?xml version="1.0" encoding="UTF-8"?><svg id="Layer_2" xmlns="http://www.w3.org/2000/svg" viewBox="0 0 261.44 261.43"><defs><style>.cls-1{fill:#00b798;font-family:Poppins-Medium, Poppins;font-size:27px;font-weight:500;}</style></defs><g id="Layer_1-2"><text class="cls-1" transform="translate(81.38 33.85) rotate(-19.87)"><tspan x="0" y="0">W</tspan></text><text class="cls-1" transform="translate(106.02 25.32) rotate(-8.26)"><tspan x="0" y="0">a</tspan></text><text class="cls-1" transform="translate(123.43 22.74) rotate(.97)"><tspan x="0" y="0">d</tspan></text><text class="cls-1" transform="translate(141.04 22.98) rotate(10.26)"><tspan x="0" y="0">d</tspan></text><text class="cls-1" transform="translate(158.36 26.08) rotate(19.45)"><tspan x="0" y="0">u</tspan></text><text class="cls-1" transform="translate(174.25 31.61) rotate(28.62)"><tspan x="0" y="0">p</tspan></text><text class="cls-1" transform="translate(189.72 40.38) rotate(35.07)"><tspan x="0" y="0"> </tspan></text><text class="cls-1" transform="translate(195.28 43.82) rotate(41.71)"><tspan x="0" y="0">D</tspan></text><text class="cls-1" transform="translate(209.05 56.12) rotate(50.94)"><tspan x="0" y="0">o</tspan></text><text class="cls-1" transform="translate(219.55 68.9) rotate(59.97)"><tspan x="0" y="0">g</tspan></text><text class="cls-1" transform="translate(228.19 84.42) rotate(66.44)"><tspan x="0" y="0"> </tspan></text><text class="cls-1" transform="translate(231.05 90.37) rotate(72.3)"><tspan x="0" y="0">-</tspan></text><text class="cls-1" transform="translate(235.51 105) rotate(78.14)"><tspan x="0" y="0"> </tspan></text><text class="cls-1" transform="translate(237.14 111.37) rotate(84.28)"><tspan x="0" y="0">B</tspan></text><text class="cls-1" transform="translate(238.62 127.74) rotate(91.16)"><tspan x="0" y="0">r</tspan></text><text class="cls-1" transform="translate(238.71 137.61) rotate(98.44)"><tspan x="0" y="0">a</tspan></text><text class="cls-1" transform="translate(236.15 155.01) rotate(107.61)"><tspan x="0" y="0">n</tspan></text><text class="cls-1" transform="translate(231.14 171.08) rotate(116.79)"><tspan x="0" y="0">d</tspan></text><text class="cls-1" transform="translate(222.86 186.83) rotate(123.29)"><tspan x="0" y="0">i</tspan></text><text class="cls-1" transform="translate(219.47 192.57) rotate(129.55)"><tspan x="0" y="0">n</tspan></text><text class="cls-1" transform="translate(208.81 205.6) rotate(138.63)"><tspan x="0" y="0">g</tspan></text><text class="cls-1" transform="translate(195.28 217.14) rotate(145.05)"><tspan x="0" y="0"> </tspan></text><text class="cls-1" transform="translate(189.76 221.01) rotate(148.63)"><tspan x="0" y="0"> </tspan></text><text class="cls-1" transform="translate(184.71 225.03) rotate(157.32)"><tspan x="0" y="0">W</tspan></text><text class="cls-1" transform="translate(160.52 234.76) rotate(168.93)"><tspan x="0" y="0">a</tspan></text><text class="cls-1" transform="translate(143.25 238.19) rotate(178.23)"><tspan x="0" y="0">d</tspan></text><text class="cls-1" transform="translate(125.65 238.8) rotate(-172.54)"><tspan x="0" y="0">d</tspan></text><text class="cls-1" transform="translate(108.19 236.54) rotate(-163.37)"><tspan x="0" y="0">u</tspan></text><text class="cls-1" transform="translate(92.05 231.81) rotate(-154.19)"><tspan x="0" y="0">p</tspan></text><text class="cls-1" transform="translate(76.16 223.8) rotate(-147.71)"><tspan x="0" y="0"> </tspan></text><text class="cls-1" transform="translate(70.44 220.64) rotate(-141.07)"><tspan x="0" y="0">D</tspan></text><text class="cls-1" transform="translate(56.11 209.03) rotate(-131.85)"><tspan x="0" y="0">o</tspan></text><text class="cls-1" transform="translate(45.01 196.78) rotate(-122.84)"><tspan x="0" y="0">g</tspan></text><text class="cls-1" transform="translate(35.6 181.68) rotate(-116.37)"><tspan x="0" y="0"> </tspan></text><text class="cls-1" transform="translate(32.47 175.91) rotate(-110.53)"><tspan x="0" y="0">-</tspan></text><text class="cls-1" transform="translate(27.27 161.47) rotate(-104.66)"><tspan x="0" y="0"> </tspan></text><text class="cls-1" transform="translate(25.33 155.2) rotate(-98.51)"><tspan x="0" y="0">B</tspan></text><text class="cls-1" transform="translate(23.07 138.91) rotate(-91.58)"><tspan x="0" y="0">r</tspan></text><text class="cls-1" transform="translate(22.51 129.09) rotate(-84.36)"><tspan x="0" y="0">a</tspan></text><text class="cls-1" transform="translate(24.21 111.58) rotate(-75.21)"><tspan x="0" y="0">n</tspan></text><text class="cls-1" transform="translate(28.43 95.27) rotate(-66.01)"><tspan x="0" y="0">d</tspan></text><text class="cls-1" transform="translate(35.91 79.15) rotate(-59.52)"><tspan x="0" y="0">i</tspan></text><text class="cls-1" transform="translate(39.02 73.26) rotate(-53.24)"><tspan x="0" y="0">n</tspan></text><text class="cls-1" transform="translate(49.03 59.72) rotate(-44.16)"><tspan x="0" y="0">g</tspan></text></g></svg>