<?xml version="1.0" encoding="UTF-8"?><svg id="Layer_2" xmlns="http://www.w3.org/2000/svg" viewBox="0 0 263.15 263.13"><defs><style>.cls-1{fill:#00b798;font-family:Poppins-Medium, Poppins;font-size:28px;font-weight:500;}</style></defs><g id="Layer_1-2"><text class="cls-1" transform="translate(82.48 35.01) rotate(-21.74)"><tspan x="0" y="0">H</tspan></text><text class="cls-1" transform="translate(100.4 28.23) rotate(-14.79)"><tspan x="0" y="0">i</tspan></text><text class="cls-1" transform="translate(107.24 26.42) rotate(-11)"><tspan x="0" y="0">l</tspan></text><text class="cls-1" transform="translate(114.19 25.06) rotate(-7.23)"><tspan x="0" y="0">l</tspan></text><text class="cls-1" transform="translate(121.23 24.16) rotate(-3.51)"><tspan x="0" y="0"> </tspan></text><text class="cls-1" transform="translate(127.91 23.27) rotate(3.65)"><tspan x="0" y="0">&amp;</tspan></text><text class="cls-1" transform="translate(148.53 24.99) rotate(10.91)"><tspan x="0" y="0"> </tspan></text><text class="cls-1" transform="translate(155.26 26) rotate(17.11)"><tspan x="0" y="0">S</tspan></text><text class="cls-1" transform="translate(170.77 30.68) rotate(26.01)"><tspan x="0" y="0">o</tspan></text><text class="cls-1" transform="translate(186.2 38.13) rotate(35.18)"><tspan x="0" y="0">n</tspan></text><text class="cls-1" transform="translate(200.46 48.27) rotate(43.57)"><tspan x="0" y="0">s</tspan></text><text class="cls-1" transform="translate(210.83 58.36) rotate(49.18)"><tspan x="0" y="0"> </tspan></text><text class="cls-1" transform="translate(215.51 63.29) rotate(55.51)"><tspan x="0" y="0">B</tspan></text><text class="cls-1" transform="translate(225.01 77.43) rotate(62.73)"><tspan x="0" y="0">r</tspan></text><text class="cls-1" transform="translate(229.88 86.37) rotate(69.89)"><tspan x="0" y="0">e</tspan></text><text class="cls-1" transform="translate(235.87 101.75) rotate(80.23)"><tspan x="0" y="0">w</tspan></text><text class="cls-1" transform="translate(239.2 123.95) rotate(87.96)"><tspan x="0" y="0">i</tspan></text><text class="cls-1" transform="translate(239.77 130.83) rotate(94.37)"><tspan x="0" y="0">n</tspan></text><text class="cls-1" transform="translate(238.55 148.19) rotate(103.83)"><tspan x="0" y="0">g</tspan></text><text class="cls-1" transform="translate(233.84 166.01) rotate(110.56)"><tspan x="0" y="0"> </tspan></text><text class="cls-1" transform="translate(231.95 172.47) rotate(117.96)"><tspan x="0" y="0">C</tspan></text><text class="cls-1" transform="translate(222.1 190.83) rotate(127.99)"><tspan x="0" y="0">o</tspan></text><text class="cls-1" transform="translate(211.21 204.33) rotate(134.22)"><tspan x="0" y="0">.</tspan></text><text class="cls-1" transform="translate(206.71 208.98) rotate(137.78)"><tspan x="0" y="0"> </tspan></text><text class="cls-1" transform="translate(201.56 213.66) rotate(141.45)"><tspan x="0" y="0"> </tspan></text><text class="cls-1" transform="translate(196.11 218.01) rotate(145.14)"><tspan x="0" y="0"> </tspan></text><text class="cls-1" transform="translate(190.39 222.01) rotate(148.85)"><tspan x="0" y="0"> </tspan></text><text class="cls-1" transform="translate(184.83 225.85) rotate(155.74)"><tspan x="0" y="0">H</tspan></text><text class="cls-1" transform="translate(167.24 233.41) rotate(162.68)"><tspan x="0" y="0">i</tspan></text><text class="cls-1" transform="translate(160.49 235.52) rotate(166.47)"><tspan x="0" y="0">l</tspan></text><text class="cls-1" transform="translate(153.59 237.19) rotate(170.25)"><tspan x="0" y="0">l</tspan></text><text class="cls-1" transform="translate(146.62 238.4) rotate(173.99)"><tspan x="0" y="0"> </tspan></text><text class="cls-1" transform="translate(140 239.57) rotate(-178.84)"><tspan x="0" y="0">&amp;</tspan></text><text class="cls-1" transform="translate(119.3 238.75) rotate(-171.61)"><tspan x="0" y="0"> </tspan></text><text class="cls-1" transform="translate(112.55 238.04) rotate(-165.43)"><tspan x="0" y="0">S</tspan></text><text class="cls-1" transform="translate(96.85 234.06) rotate(-156.52)"><tspan x="0" y="0">o</tspan></text><text class="cls-1" transform="translate(81.1 227.3) rotate(-147.34)"><tspan x="0" y="0">n</tspan></text><text class="cls-1" transform="translate(66.4 217.79) rotate(-138.93)"><tspan x="0" y="0">s</tspan></text><text class="cls-1" transform="translate(55.6 208.16) rotate(-133.31)"><tspan x="0" y="0"> </tspan></text><text class="cls-1" transform="translate(50.72 203.43) rotate(-127.01)"><tspan x="0" y="0">B</tspan></text><text class="cls-1" transform="translate(40.6 189.71) rotate(-119.79)"><tspan x="0" y="0">r</tspan></text><text class="cls-1" transform="translate(35.34 181) rotate(-112.64)"><tspan x="0" y="0">e</tspan></text><text class="cls-1" transform="translate(28.68 165.9) rotate(-102.29)"><tspan x="0" y="0">w</tspan></text><text class="cls-1" transform="translate(24.38 143.88) rotate(-94.53)"><tspan x="0" y="0">i</tspan></text><text class="cls-1" transform="translate(23.51 137.03) rotate(-88.12)"><tspan x="0" y="0">n</tspan></text><text class="cls-1" transform="translate(23.98 119.62) rotate(-78.7)"><tspan x="0" y="0">g</tspan></text><text class="cls-1" transform="translate(27.89 101.61) rotate(-71.97)"><tspan x="0" y="0"> </tspan></text><text class="cls-1" transform="translate(29.49 95.08) rotate(-64.57)"><tspan x="0" y="0">C</tspan></text><text class="cls-1" transform="translate(38.52 76.31) rotate(-54.52)"><tspan x="0" y="0">o</tspan></text><text class="cls-1" transform="translate(48.82 62.34) rotate(-48.28)"><tspan x="0" y="0">.</tspan></text></g></svg>