<?xml version="1.0" encoding="UTF-8"?><svg id="Layer_2" xmlns="http://www.w3.org/2000/svg" viewBox="0 0 261.44 261.43"><defs><style>.cls-1{fill:#00b798;font-family:Poppins-Medium, Poppins;font-size:27px;font-weight:500;}</style></defs><g id="Layer_1-2"><text class="cls-1" transform="translate(81.8 34.28) rotate(-22.88)"><tspan x="0" y="0">T</tspan></text><text class="cls-1" transform="translate(95.17 28.46) rotate(-14.27)"><tspan x="0" y="0">a</tspan></text><text class="cls-1" transform="translate(112.3 24.2) rotate(-5.91)"><tspan x="0" y="0">s</tspan></text><text class="cls-1" transform="translate(126.06 22.72) rotate(1.47)"><tspan x="0" y="0">k</tspan></text><text class="cls-1" transform="translate(140.57 23.26) rotate(7.06)"><tspan x="0" y="0">i</tspan></text><text class="cls-1" transform="translate(147.36 24.1) rotate(10.68)"><tspan x="0" y="0"> </tspan></text><text class="cls-1" transform="translate(153.85 25.07) rotate(16.52)"><tspan x="0" y="0">-</tspan></text><text class="cls-1" transform="translate(168.49 29.62) rotate(22.38)"><tspan x="0" y="0"> </tspan></text><text class="cls-1" transform="translate(174.69 31.51) rotate(30.27)"><tspan x="0" y="0">M</tspan></text><text class="cls-1" transform="translate(194.45 43.25) rotate(40.96)"><tspan x="0" y="0">a</tspan></text><text class="cls-1" transform="translate(207.74 54.89) rotate(49.4)"><tspan x="0" y="0">k</tspan></text><text class="cls-1" transform="translate(217.05 66.01) rotate(55)"><tspan x="0" y="0">i</tspan></text><text class="cls-1" transform="translate(221.12 71.28) rotate(61.28)"><tspan x="0" y="0">n</tspan></text><text class="cls-1" transform="translate(229.29 86.01) rotate(70.46)"><tspan x="0" y="0">g</tspan></text><text class="cls-1" transform="translate(234.96 102.85) rotate(76.96)"><tspan x="0" y="0"> </tspan></text><text class="cls-1" transform="translate(236.67 109.21) rotate(82.64)"><tspan x="0" y="0">T</tspan></text><text class="cls-1" transform="translate(238.69 123.64) rotate(91.09)"><tspan x="0" y="0">a</tspan></text><text class="cls-1" transform="translate(238.26 141.33) rotate(99.4)"><tspan x="0" y="0">s</tspan></text><text class="cls-1" transform="translate(236.06 154.98) rotate(106.92)"><tspan x="0" y="0">k</tspan></text><text class="cls-1" transform="translate(231.89 168.74) rotate(114.46)"><tspan x="0" y="0">s</tspan></text><text class="cls-1" transform="translate(225.96 181.4) rotate(119.94)"><tspan x="0" y="0"> </tspan></text><text class="cls-1" transform="translate(222.82 187.21) rotate(125.27)"><tspan x="0" y="0">F</tspan></text><text class="cls-1" transform="translate(215.26 198.19) rotate(133.25)"><tspan x="0" y="0">u</tspan></text><text class="cls-1" transform="translate(203.78 210.48) rotate(142.12)"><tspan x="0" y="0">n</tspan></text><text class="cls-1" transform="translate(190.18 220.73) rotate(148.36)"><tspan x="0" y="0"> </tspan></text><text class="cls-1" transform="translate(184.45 224.27) rotate(151.94)"><tspan x="0" y="0"> </tspan></text><text class="cls-1" transform="translate(178.74 227.57) rotate(157.64)"><tspan x="0" y="0">T</tspan></text><text class="cls-1" transform="translate(165.33 233.26) rotate(166.24)"><tspan x="0" y="0">a</tspan></text><text class="cls-1" transform="translate(148.14 237.37) rotate(174.61)"><tspan x="0" y="0">s</tspan></text><text class="cls-1" transform="translate(134.36 238.72) rotate(-178.01)"><tspan x="0" y="0">k</tspan></text><text class="cls-1" transform="translate(119.88 238.05) rotate(-172.42)"><tspan x="0" y="0">i</tspan></text><text class="cls-1" transform="translate(113.1 237.16) rotate(-168.81)"><tspan x="0" y="0"> </tspan></text><text class="cls-1" transform="translate(106.59 236.12) rotate(-162.94)"><tspan x="0" y="0">-</tspan></text><text class="cls-1" transform="translate(92.01 231.44) rotate(-157.09)"><tspan x="0" y="0"> </tspan></text><text class="cls-1" transform="translate(85.83 229.5) rotate(-149.21)"><tspan x="0" y="0">M</tspan></text><text class="cls-1" transform="translate(66.16 217.57) rotate(-138.51)"><tspan x="0" y="0">a</tspan></text><text class="cls-1" transform="translate(52.99 205.82) rotate(-130.09)"><tspan x="0" y="0">k</tspan></text><text class="cls-1" transform="translate(43.77 194.6) rotate(-124.47)"><tspan x="0" y="0">i</tspan></text><text class="cls-1" transform="translate(39.75 189.3) rotate(-118.2)"><tspan x="0" y="0">n</tspan></text><text class="cls-1" transform="translate(31.72 174.51) rotate(-109.02)"><tspan x="0" y="0">g</tspan></text><text class="cls-1" transform="translate(26.21 157.6) rotate(-102.52)"><tspan x="0" y="0"> </tspan></text><text class="cls-1" transform="translate(24.56 151.24) rotate(-96.84)"><tspan x="0" y="0">T</tspan></text><text class="cls-1" transform="translate(22.67 136.77) rotate(-88.39)"><tspan x="0" y="0">a</tspan></text><text class="cls-1" transform="translate(23.25 119.11) rotate(-80.09)"><tspan x="0" y="0">s</tspan></text><text class="cls-1" transform="translate(25.59 105.46) rotate(-72.54)"><tspan x="0" y="0">k</tspan></text><text class="cls-1" transform="translate(29.87 91.75) rotate(-65.02)"><tspan x="0" y="0">s</tspan></text><text class="cls-1" transform="translate(35.92 79.14) rotate(-59.54)"><tspan x="0" y="0"> </tspan></text><text class="cls-1" transform="translate(39.11 73.36) rotate(-54.22)"><tspan x="0" y="0">F</tspan></text><text class="cls-1" transform="translate(46.76 62.46) rotate(-46.24)"><tspan x="0" y="0">u</tspan></text><text class="cls-1" transform="translate(58.36 50.28) rotate(-37.37)"><tspan x="0" y="0">n</tspan></text></g></svg>